<svg xmlns="http://www.w3.org/2000/svg" width="15.816" height="15.811" viewBox="0 0 15.816 15.811">
  <g id="Xnix_Line_Search_5" data-name="Xnix/Line/Search 5" transform="translate(0.755 0.75)" opacity="0.5">
    <path id="Vector" d="M1.805,10.714A6.313,6.313,0,0,1,.118,7.5,6.383,6.383,0,0,1,.469,3.875a6.253,6.253,0,0,1,2.27-2.817,6.071,6.071,0,0,1,6.848,0,6.253,6.253,0,0,1,2.27,2.817A6.383,6.383,0,0,1,12.208,7.5a6.313,6.313,0,0,1-1.687,3.214,6.085,6.085,0,0,1-8.716,0Z" transform="translate(0)" fill="none" stroke="#000" stroke-linecap="round" stroke-linejoin="round" stroke-width="1.5"/>
    <path id="Vector-2" data-name="Vector" d="M6.249,2.949A2.4,2.4,0,0,1,8.712,4.4m1.9,6.218L14,14" transform="translate(0)" fill="none" stroke="#000" stroke-linecap="round" stroke-linejoin="round" stroke-width="1.5"/>
  </g>
</svg>
